<svg width="40" height="41" viewBox="0 0 40 41" fill="none" xmlns="http://www.w3.org/2000/svg">
<path opacity="0.5" d="M39.9902 1.02023L30.2035 37.5834C30.1537 37.7493 29.9546 37.7991 29.8385 37.6829L23.2864 31.1271L28.1963 12.8041C28.2461 12.6381 28.0968 12.4887 27.9309 12.5385L9.61809 17.4512L3.09911 10.9286C2.983 10.8124 3.03276 10.6133 3.19864 10.5635L39.7248 0.754674C39.8907 0.72148 40.04 0.870853 39.9902 1.02023Z" fill="#00B37E"/>
<path opacity="0.5" d="M23.2861 31.1268L20.7648 40.5871C20.715 40.7531 20.516 40.8029 20.3998 40.6867L0.0632817 20.3554C-0.0528324 20.2392 -0.00306943 20.0401 0.162808 19.9903L9.61781 17.4509L23.2861 31.1268Z" fill="#00B37E"/>
<path d="M28.1957 12.8038L23.2857 31.1268L9.61743 17.4509L27.9303 12.5382C28.0962 12.4884 28.2454 12.6378 28.1957 12.8038Z" fill="#00B37E"/>
</svg>
